<svg xmlns="http://www.w3.org/2000/svg" viewBox="0 0 640 190" role="img" aria-labelledby="coedLogoTitle coedLogoDesc">
  <title id="coedLogoTitle">CoEd logotyp</title>
  <desc id="coedLogoDesc">CoEd med gröna klamrar och undertiteln collaborative code editor.</desc>
  <defs>
    <linearGradient id="coedBraceGradient" x1="0%" y1="0%" x2="100%" y2="0%">
      <stop offset="0%" stop-color="#5c60b3" />
      <stop offset="100%" stop-color="#5b6cff" />
    </linearGradient>
  </defs>
  <g fill="none" stroke="url(#coedBraceGradient)" stroke-linecap="round" stroke-linejoin="round" stroke-width="12">
    <path d="M49 40H39c-7 0-12 5-12 12v10c0 11-5 18-15 22 10 4 15 11 15 22v10c0 7 5 12 12 12h10" />
    <path d="M591 40h10c7 0 12 5 12 12v10c0 11 5 18 15 22-10 4-15 11-15 22v10c0 7-5 12-12 12h-10" />
  </g>

  <text
    x="320"
    y="82"
    fill="#edf2ff"
    font-family="'Noto Sans', 'DejaVu Sans', sans-serif"
    font-size="70"
    font-weight="700"
    letter-spacing="1.5"
    text-anchor="middle"
    dominant-baseline="central"
  >
    CoEd
  </text>

  <text
    x="320"
    y="162"
    fill="#737d8d"
    font-family="'Noto Sans Mono', 'DejaVu Sans Mono', monospace"
    font-size="28"
    letter-spacing="0.5"
    text-anchor="middle"
  >
    collaborative code editor
  </text>
</svg>
